<?xml version="1.0" encoding="UTF-8"?>
<svg version="1.1" xmlns="http://www.w3.org/2000/svg" width="504" height="504">
<path d="M0 0 C166.32 0 332.64 0 504 0 C504 166.32 504 332.64 504 504 C337.68 504 171.36 504 0 504 C0 337.68 0 171.36 0 0 Z " fill="#F9F9F9" transform="translate(0,0)"/>
<path d="M0 0 C3.5626143 3.19721796 4.57101304 6.52745639 6 11 C6.86165771 10.99830811 6.86165771 10.99830811 7.74072266 10.99658203 C10.36997717 11.00876677 12.99638437 11.06650508 15.625 11.125 C16.98044922 11.12113281 16.98044922 11.12113281 18.36328125 11.1171875 C19.24628906 11.14296875 20.12929688 11.16875 21.0390625 11.1953125 C22.24876709 11.21102295 22.24876709 11.21102295 23.48291016 11.22705078 C27.32815461 12.40785039 29.7854283 14.73414004 32 18 C32.85558756 21.29245419 32.81136812 24.46979973 32.76049805 27.85742188 C32.77385948 29.32194542 32.77385948 29.32194542 32.78749084 30.8160553 C32.80875177 34.03430579 32.78647753 37.25054912 32.76171875 40.46875 C32.76322146 42.71024785 32.7666522 44.95174516 32.77192688 47.1932373 C32.77625692 51.88739198 32.75943002 56.58085936 32.72729492 61.27490234 C32.68751472 67.28761434 32.69681496 73.2990376 32.72152996 79.31179047 C32.73572186 83.93929583 32.72561913 88.56650087 32.70801735 93.19398499 C32.70217298 95.4107237 32.70346184 97.62749321 32.71204185 99.84422302 C32.72004526 102.94436791 32.69576024 106.04263311 32.6628418 109.14257812 C32.67566696 110.51271812 32.67566696 110.51271812 32.68875122 111.91053772 C32.60950497 116.24089507 32.35800528 119.11581304 29.58357239 122.55358887 C26.04162158 125.90749833 24.49784098 126.12665952 19.74394226 126.15390015 C18.62933624 126.16250061 17.51473022 126.17110107 16.36634827 126.17996216 C15.13774582 126.18422211 13.90914337 126.18848206 12.64331055 126.19287109 C10.70908234 126.20513733 10.70908234 126.20513733 8.73577881 126.21765137 C4.45278007 126.24387509 0.16977153 126.25917908 -4.11328125 126.2734375 C-5.58727716 126.27879699 -7.061273 126.2841745 -8.53526878 126.28956985 C-14.66628452 126.31119887 -20.79729762 126.32993592 -26.92834187 126.34119225 C-35.7171912 126.35743392 -44.50559859 126.3906161 -53.2942813 126.44759309 C-59.47269268 126.48628318 -65.65098581 126.50582378 -71.82951516 126.51111281 C-75.52035173 126.51476756 -79.21071699 126.52680074 -82.9014225 126.55921555 C-87.01959169 126.59486616 -91.1368102 126.5909278 -95.25512695 126.58349609 C-96.47765671 126.59990143 -97.70018646 126.61630676 -98.95976257 126.63320923 C-108.15546877 126.56509716 -108.15546877 126.56509716 -111.23405457 123.58853149 C-113.43804551 120.35791074 -114.1251337 118.76084984 -114.15390015 114.92082214 C-114.16250061 114.0670549 -114.17110107 113.21328766 -114.17996216 112.33364868 C-114.18422211 111.39491913 -114.18848206 110.45618958 -114.19287109 109.48901367 C-114.20104858 108.50188889 -114.20922607 107.5147641 -114.21765137 106.49772644 C-114.24252592 103.22114677 -114.25902598 99.94461046 -114.2734375 96.66796875 C-114.27876118 95.55072229 -114.28408485 94.43347584 -114.28956985 93.28237343 C-114.31630937 87.36981517 -114.33568243 81.45727809 -114.35009766 75.54467773 C-114.36675471 69.43103067 -114.4115396 63.3179217 -114.4624691 57.20447826 C-114.49608799 52.509337 -114.50766921 47.81432434 -114.51332474 43.11907387 C-114.52005115 40.86517534 -114.53530901 38.61128567 -114.55921555 36.35750389 C-114.59075639 33.20427674 -114.5909202 30.05251273 -114.58349609 26.89916992 C-114.59990143 25.96651306 -114.61630676 25.0338562 -114.63320923 24.07293701 C-114.59089435 19.68691808 -114.41618182 17.59477351 -111.84381104 13.91854858 C-108.53865589 11.68875883 -106.87141286 11.38383446 -102.91552734 11.40405273 C-101.10742081 11.39395424 -101.10742081 11.39395424 -99.26278687 11.38365173 C-97.96692657 11.4001326 -96.67106628 11.41661346 -95.3359375 11.43359375 C-93.97937159 11.43062958 -92.62280918 11.42489133 -91.26626587 11.41651917 C-86.96895263 11.39581151 -82.67227129 11.41538258 -78.375 11.4375 C-73.41118886 11.45871883 -68.44804026 11.46290448 -63.48424149 11.43699837 C-61.51308188 11.43368149 -59.54192974 11.45520477 -57.57089233 11.47740173 C-49.5442451 11.45393007 -43.34728368 10.17957654 -36 7 C-33.7569916 6.26982918 -31.50811544 5.55701964 -29.25 4.875 C-28.15945313 4.545 -27.06890625 4.215 -25.9453125 3.875 C-22.63630353 2.89195224 -19.32409699 1.93074716 -16 1 C-14.88625 0.608125 -13.7725 0.21625 -12.625 -0.1875 C-8.16863498 -1.18634044 -4.40042661 -1.31330562 0 0 Z " fill="#AAAAAA" transform="translate(305,181)"/>
<path d="M0 0 C1.08535538 -0.00281982 2.17071075 -0.00563965 3.28895569 -0.00854492 C4.49003464 -0.00652069 5.69111359 -0.00449646 6.92858887 -0.00241089 C8.1853392 -0.00416321 9.44208954 -0.00591553 10.73692322 -0.00772095 C14.19344221 -0.01229476 17.64993149 -0.01050594 21.10645103 -0.00734186 C24.71615049 -0.00481799 28.32584732 -0.00715587 31.93554688 -0.00872803 C37.99849914 -0.01054964 44.06143923 -0.00814362 50.12438965 -0.00338745 C57.14363661 0.00205516 64.16285452 0.00029249 71.18210077 -0.00521386 C77.19822517 -0.00974521 83.21434081 -0.01039543 89.23046637 -0.00777519 C92.82821472 -0.00621254 96.42594941 -0.00601832 100.0236969 -0.00931168 C104.03237643 -0.01272458 108.04100554 -0.00800029 112.04968262 -0.00241089 C113.85130104 -0.00544724 113.85130104 -0.00544724 115.6893158 -0.00854492 C117.31734886 -0.00431519 117.31734886 -0.00431519 118.97827148 0 C120.40187611 0.00056554 120.40187611 0.00056554 121.85424042 0.0011425 C123.98913574 0.12698364 123.98913574 0.12698364 124.98913574 1.12698364 C125.0834656 3.33566195 125.10656005 5.54739885 125.10266113 7.75808716 C125.10280716 8.45073669 125.10295319 9.14338623 125.10310364 9.85702515 C125.10240449 12.1566781 125.09461203 14.45625101 125.08679199 16.75588989 C125.08492782 18.34629777 125.08350391 19.93670621 125.08250427 21.52711487 C125.07867903 25.72094294 125.0688487 29.91473659 125.05780029 34.10855103 C125.04758631 38.38487279 125.04300668 42.66120009 125.03796387 46.93753052 C125.02722643 55.33403072 125.01014994 63.7305029 124.98913574 72.12698364 C121.78527195 68.95407824 118.80089363 65.77766443 115.98913574 62.25198364 C112.21205565 57.57800493 108.31972382 53.02556521 104.36413574 48.50198364 C100.21741304 43.75708427 96.221986 38.95870057 92.42272949 33.92776489 C91.05844107 32.21404019 89.62926805 30.70593354 88.05163574 29.18948364 C87.37101074 28.50885864 86.69038574 27.82823364 85.98913574 27.12698364 C85.98913574 26.46698364 85.98913574 25.80698364 85.98913574 25.12698364 C81.96431457 25.50265615 78.33049091 25.96219986 75.20495605 28.67630005 C73.558238 30.70075802 72.07404215 32.77647693 70.61413574 34.93948364 C69.50384996 36.48851007 68.3905257 38.0353628 67.27429199 39.58010864 C66.72660156 40.34903442 66.17891113 41.11796021 65.61462402 41.91018677 C62.83246229 45.70442355 59.75591522 49.23007431 56.67028809 52.77761841 C54.14602904 55.69889412 51.88849493 58.67279383 49.73913574 61.87698364 C47.61333766 64.76243291 47.0229388 65.11452988 43.42663574 66.43948364 C38.86165948 66.0244858 38.00883836 64.51626181 34.98913574 61.12698364 C34.10363817 59.95412707 33.23299217 58.76994168 32.37585449 57.57620239 C31.93177246 56.96067505 31.48769043 56.34514771 31.03015137 55.71096802 C30.12244597 54.4391326 29.23186824 53.15490992 28.35827637 51.85940552 C25.80326649 48.38056164 25.80326649 48.38056164 22.01135254 46.55545044 C18.44751695 46.34463902 16.33322979 46.86985252 13.48522949 48.99807739 C12.80589355 49.84499146 12.12655762 50.69190552 11.42663574 51.56448364 C10.67897949 52.47456177 9.93132324 53.38463989 9.16101074 54.32229614 C8.44429199 55.24784302 7.72757324 56.17338989 6.98913574 57.12698364 C6.33429199 57.94940552 5.67944824 58.77182739 5.00476074 59.61917114 C2.5173668 62.77624807 0.09858085 65.98204283 -2.32336426 69.18948364 C-2.88023926 69.82885864 -3.43711426 70.46823364 -4.01086426 71.12698364 C-4.67086426 71.12698364 -5.33086426 71.12698364 -6.01086426 71.12698364 C-6.03398971 62.017392 -6.05178037 52.90781039 -6.06267643 43.79819584 C-6.06790482 39.56866993 -6.07500166 35.33916404 -6.08630371 31.10964966 C-6.09713417 27.03129821 -6.10314143 22.95296607 -6.1057415 18.87460136 C-6.10759546 17.31520725 -6.11121553 15.75581424 -6.11659431 14.1964283 C-6.12380687 12.01969202 -6.12485511 9.8430365 -6.12438965 7.66629028 C-6.12661026 6.42496841 -6.12883087 5.18364655 -6.13111877 3.90470886 C-5.92878004 -0.76905665 -4.20383958 0.00167001 0 0 Z " fill="#FCFCFC" transform="translate(204.0108642578125,199.87301635742188)"/>
<path d="M0 0 C3.1788333 3.46781814 3.93028091 6.0379917 4.4375 10.6875 C3.98110557 15.02324712 2.90161174 16.96260746 0.0625 20.25 C-4.33821276 23.18380851 -7.70246164 23.64509723 -12.9375 23.25 C-13.9275 22.92 -14.9175 22.59 -15.9375 22.25 C-15.9375 21.59 -15.9375 20.93 -15.9375 20.25 C-16.55625 20.0025 -17.175 19.755 -17.8125 19.5 C-20.42748244 17.96177504 -21.00458246 17.12649576 -21.9375 14.25 C-22.49812434 8.19525713 -21.27461092 4.19679203 -17.5 -0.5625 C-12.49692077 -4.36484022 -5.01954725 -2.99036857 0 0 Z " fill="#ABABAB" transform="translate(255.9375,211.75)"/>
<path d="M0 0 C0 20.13 0 40.26 0 61 C-2 60 -2 60 -2.88208008 57.47827148 C-3.17493896 56.37040283 -3.46779785 55.26253418 -3.76953125 54.12109375 C-4.09888672 52.89656494 -4.42824219 51.67203613 -4.76757812 50.41040039 C-5.11598179 49.08612561 -5.46428734 47.76182501 -5.8125 46.4375 C-6.52293858 43.77745275 -7.23917196 41.11899078 -7.95703125 38.4609375 C-8.13251495 37.80901932 -8.30799866 37.15710114 -8.48880005 36.48542786 C-10.17353686 30.26959005 -12.1168524 24.16255626 -14.1875 18.06640625 C-15.24787045 14.06452738 -15.91942984 10.70844411 -13.8984375 6.953125 C-9.764705 2.33182406 -6.44463723 0 0 0 Z " fill="#ADADAD" transform="translate(184,214)"/>
<path d="M0 0 C17.49 0 34.98 0 53 0 C53 0.66 53 1.32 53 2 C52.20416504 2.2266333 51.40833008 2.4532666 50.58837891 2.68676758 C47.58756961 3.54168224 44.58694065 4.3972264 41.58642578 5.25317383 C39.66842927 5.80011558 37.75023254 6.346355 35.83203125 6.89257812 C29.5655913 8.68064607 23.31065822 10.48553005 17.09448242 12.44213867 C13.45345481 13.41191931 10.76561278 13.51059156 7 13 C3.29913744 10.18412631 1.29212688 7.46371106 0 3 C0 2.01 0 1.02 0 0 Z " fill="#AEAEAE" transform="translate(195,313)"/>
<path d="M0 0 C0.33 0 0.66 0 1 0 C1 4.29 1 8.58 1 13 C0.34 11.68 -0.32 10.36 -1 9 C-1.66 8.01 -2.32 7.02 -3 6 C-2.625 3.8125 -2.625 3.8125 -2 2 C-1.67 2.33 -1.34 2.66 -1 3 C-0.67 2.01 -0.34 1.02 0 0 Z " fill="#A4A3A4" transform="translate(182,256)"/>
</svg>
